<mxfile host="app.diagrams.net" agent="Mozilla/5.0 (Windows NT 10.0; Win64; x64) AppleWebKit/537.36 (KHTML, like Gecko) Chrome/139.0.0.0 Safari/537.36" version="28.1.1" pages="6">
  <diagram name="actors" id="oIoZTVnDcDwzfpjAElMC">
    <mxGraphModel dx="1426" dy="743" grid="0" gridSize="10" guides="1" tooltips="1" connect="1" arrows="1" fold="1" page="1" pageScale="1" pageWidth="850" pageHeight="1100" math="0" shadow="0">
      <root>
        <mxCell id="0" />
        <mxCell id="1" parent="0" />
        <mxCell id="UGEhao8lYCI3rEHCyfmr-1" value="User" style="shape=umlActor;verticalLabelPosition=bottom;verticalAlign=top;html=1;" vertex="1" parent="1">
          <mxGeometry x="660" y="360" width="30" height="60" as="geometry" />
        </mxCell>
        <mxCell id="UGEhao8lYCI3rEHCyfmr-2" value="&lt;span data-end=&quot;239&quot; data-start=&quot;222&quot;&gt;Administrator&lt;/span&gt;" style="shape=umlActor;verticalLabelPosition=bottom;verticalAlign=top;html=1;" vertex="1" parent="1">
          <mxGeometry x="480" y="360" width="30" height="60" as="geometry" />
        </mxCell>
        <mxCell id="UGEhao8lYCI3rEHCyfmr-3" value="Graph Optimization System (Backend)" style="shape=umlActor;verticalLabelPosition=bottom;verticalAlign=top;html=1;" vertex="1" parent="1">
          <mxGeometry x="216" y="195" width="30" height="60" as="geometry" />
        </mxCell>
        <mxCell id="UGEhao8lYCI3rEHCyfmr-4" value="Database (PostgreSQL)" style="shape=umlActor;verticalLabelPosition=bottom;verticalAlign=top;html=1;" vertex="1" parent="1">
          <mxGeometry x="220" y="360" width="30" height="60" as="geometry" />
        </mxCell>
        <mxCell id="UGEhao8lYCI3rEHCyfmr-10" value="" style="edgeStyle=orthogonalEdgeStyle;rounded=0;orthogonalLoop=1;jettySize=auto;html=1;entryX=0.5;entryY=0;entryDx=0;entryDy=0;entryPerimeter=0;endArrow=none;endFill=0;startArrow=none;startFill=0;exitX=0;exitY=1;exitDx=0;exitDy=0;" edge="1" parent="1" source="1aaR0J3puOdo1Zm88m9W-1" target="UGEhao8lYCI3rEHCyfmr-1">
          <mxGeometry relative="1" as="geometry">
            <mxPoint x="680" y="210" as="targetPoint" />
            <Array as="points">
              <mxPoint x="583" y="284" />
              <mxPoint x="583" y="323" />
              <mxPoint x="675" y="323" />
            </Array>
          </mxGeometry>
        </mxCell>
        <mxCell id="UGEhao8lYCI3rEHCyfmr-6" value="Authenticated User" style="shape=umlActor;verticalLabelPosition=bottom;verticalAlign=top;html=1;" vertex="1" parent="1">
          <mxGeometry x="570" y="180" width="30" height="60" as="geometry" />
        </mxCell>
        <mxCell id="UGEhao8lYCI3rEHCyfmr-8" style="edgeStyle=orthogonalEdgeStyle;rounded=0;orthogonalLoop=1;jettySize=auto;html=1;entryX=0.5;entryY=0;entryDx=0;entryDy=0;entryPerimeter=0;endArrow=none;endFill=0;startArrow=classic;startFill=1;exitX=0.5;exitY=1;exitDx=0;exitDy=0;" edge="1" parent="1" source="1aaR0J3puOdo1Zm88m9W-1" target="UGEhao8lYCI3rEHCyfmr-2">
          <mxGeometry relative="1" as="geometry">
            <mxPoint x="575" y="316" as="sourcePoint" />
          </mxGeometry>
        </mxCell>
        <mxCell id="UGEhao8lYCI3rEHCyfmr-11" value="" style="line;strokeWidth=1;fillColor=none;align=left;verticalAlign=middle;spacingTop=-1;spacingLeft=3;spacingRight=3;rotatable=0;labelPosition=right;points=[];portConstraint=eastwest;strokeColor=inherit;" vertex="1" parent="1">
          <mxGeometry x="136" y="112" width="620" height="8" as="geometry" />
        </mxCell>
        <mxCell id="UGEhao8lYCI3rEHCyfmr-12" value="&lt;b&gt;Actors&lt;/b&gt;" style="text;html=1;align=center;verticalAlign=middle;resizable=0;points=[];autosize=1;strokeColor=none;fillColor=none;" vertex="1" parent="1">
          <mxGeometry x="403" y="86" width="56" height="26" as="geometry" />
        </mxCell>
        <mxCell id="1aaR0J3puOdo1Zm88m9W-1" value="" style="ellipse;whiteSpace=wrap;html=1;aspect=fixed;strokeColor=none;" vertex="1" parent="1">
          <mxGeometry x="575" y="270" width="16" height="16" as="geometry" />
        </mxCell>
        <mxCell id="pJBwkoVHiVzfKC2FODT9-1" value="Unauthenticated User" style="shape=umlActor;verticalLabelPosition=bottom;verticalAlign=top;html=1;" vertex="1" parent="1">
          <mxGeometry x="216" y="496" width="30" height="60" as="geometry" />
        </mxCell>
      </root>
    </mxGraphModel>
  </diagram>
  <diagram id="SaR02eaC54pUmHeW6NlL" name="Use Case Diagram">
    <mxGraphModel dx="1426" dy="743" grid="0" gridSize="10" guides="1" tooltips="1" connect="1" arrows="1" fold="1" page="1" pageScale="1" pageWidth="1100" pageHeight="850" math="0" shadow="0">
      <root>
        <mxCell id="0" />
        <mxCell id="1" parent="0" />
        <mxCell id="DburSkhsFi0roDUU-yV9-1" value="Register / Authenticate with JWT" style="ellipse;whiteSpace=wrap;html=1;fillColor=#f5f5f5;fontColor=#333333;strokeColor=#666666;" vertex="1" parent="1">
          <mxGeometry x="638" y="527" width="140" height="70" as="geometry" />
        </mxCell>
        <mxCell id="DburSkhsFi0roDUU-yV9-2" value="Create graph model (if enough tokens)" style="ellipse;whiteSpace=wrap;html=1;fillColor=#dae8fc;strokeColor=#6c8ebf;" vertex="1" parent="1">
          <mxGeometry x="420" y="170" width="140" height="70" as="geometry" />
        </mxCell>
        <mxCell id="DburSkhsFi0roDUU-yV9-3" value="Execute model (find optimal path between nodes)" style="ellipse;whiteSpace=wrap;html=1;fillColor=#dae8fc;strokeColor=#6c8ebf;" vertex="1" parent="1">
          <mxGeometry x="420" y="260" width="140" height="70" as="geometry" />
        </mxCell>
        <mxCell id="DburSkhsFi0roDUU-yV9-5" value="Check model versions" style="ellipse;whiteSpace=wrap;html=1;fillColor=#dae8fc;strokeColor=#6c8ebf;" vertex="1" parent="1">
          <mxGeometry x="420" y="350" width="140" height="70" as="geometry" />
        </mxCell>
        <mxCell id="DburSkhsFi0roDUU-yV9-6" value="Run simulation on an edge" style="ellipse;whiteSpace=wrap;html=1;fillColor=#dae8fc;strokeColor=#6c8ebf;" vertex="1" parent="1">
          <mxGeometry x="420" y="440" width="140" height="70" as="geometry" />
        </mxCell>
        <mxCell id="SqIxNSM2zFmbWPZMG98C-1" value="Authenticated User" style="shape=umlActor;verticalLabelPosition=bottom;verticalAlign=top;html=1;" vertex="1" parent="1">
          <mxGeometry x="90" y="457.5" width="30" height="60" as="geometry" />
        </mxCell>
        <mxCell id="JpJBaen8LDR_DQLkYO8A-1" value="&lt;span data-end=&quot;239&quot; data-start=&quot;222&quot;&gt;Administrator&lt;/span&gt;" style="shape=umlActor;verticalLabelPosition=bottom;verticalAlign=top;html=1;" vertex="1" parent="1">
          <mxGeometry x="270" y="607.5" width="30" height="60" as="geometry" />
        </mxCell>
        <mxCell id="RtMiJazuxFvzRtgO_Lz0-1" value="User" style="shape=umlActor;verticalLabelPosition=bottom;verticalAlign=top;html=1;" vertex="1" parent="1">
          <mxGeometry x="270" y="292.5" width="30" height="60" as="geometry" />
        </mxCell>
        <mxCell id="RtMiJazuxFvzRtgO_Lz0-2" value="Recharge tokens for a user" style="ellipse;whiteSpace=wrap;html=1;fillColor=#d5e8d4;strokeColor=#82b366;" vertex="1" parent="1">
          <mxGeometry x="420" y="592.5" width="140" height="70" as="geometry" />
        </mxCell>
        <mxCell id="RtMiJazuxFvzRtgO_Lz0-4" value="Login" style="ellipse;whiteSpace=wrap;html=1;fillColor=#f5f5f5;fontColor=#333333;strokeColor=#666666;" vertex="1" parent="1">
          <mxGeometry x="638" y="627" width="140" height="70" as="geometry" />
        </mxCell>
        <mxCell id="smbjot6jxQItHd3snsJP-1" value="Unauthenticated User" style="shape=umlActor;verticalLabelPosition=bottom;verticalAlign=top;html=1;" vertex="1" parent="1">
          <mxGeometry x="938" y="587" width="30" height="60" as="geometry" />
        </mxCell>
        <mxCell id="smbjot6jxQItHd3snsJP-3" value="" style="endArrow=classic;html=1;rounded=0;exitX=0;exitY=0.3333333333333333;exitDx=0;exitDy=0;exitPerimeter=0;" edge="1" parent="1" source="RtMiJazuxFvzRtgO_Lz0-1" target="SqIxNSM2zFmbWPZMG98C-1">
          <mxGeometry width="50" height="50" relative="1" as="geometry">
            <mxPoint x="200" y="320" as="sourcePoint" />
            <mxPoint x="460" y="430" as="targetPoint" />
          </mxGeometry>
        </mxCell>
        <mxCell id="smbjot6jxQItHd3snsJP-4" value="" style="endArrow=classic;html=1;rounded=0;entryX=1;entryY=0.875;entryDx=0;entryDy=0;entryPerimeter=0;" edge="1" parent="1" source="JpJBaen8LDR_DQLkYO8A-1" target="SqIxNSM2zFmbWPZMG98C-1">
          <mxGeometry width="50" height="50" relative="1" as="geometry">
            <mxPoint x="410" y="480" as="sourcePoint" />
            <mxPoint x="460" y="430" as="targetPoint" />
          </mxGeometry>
        </mxCell>
        <mxCell id="smbjot6jxQItHd3snsJP-5" value="" style="endArrow=none;html=1;rounded=0;exitX=0;exitY=0.5;exitDx=0;exitDy=0;" edge="1" parent="1" source="DburSkhsFi0roDUU-yV9-2" target="RtMiJazuxFvzRtgO_Lz0-1">
          <mxGeometry width="50" height="50" relative="1" as="geometry">
            <mxPoint x="350" y="349.4140625" as="sourcePoint" />
            <mxPoint x="460" y="430" as="targetPoint" />
          </mxGeometry>
        </mxCell>
        <mxCell id="rO2-xOWigslmhm9Gvi68-1" value="" style="endArrow=none;html=1;rounded=0;exitX=0;exitY=0.5;exitDx=0;exitDy=0;entryX=1;entryY=0.3333333333333333;entryDx=0;entryDy=0;entryPerimeter=0;" edge="1" parent="1" source="DburSkhsFi0roDUU-yV9-5" target="RtMiJazuxFvzRtgO_Lz0-1">
          <mxGeometry width="50" height="50" relative="1" as="geometry">
            <mxPoint x="560" y="270" as="sourcePoint" />
            <mxPoint x="440" y="374" as="targetPoint" />
          </mxGeometry>
        </mxCell>
        <mxCell id="rO2-xOWigslmhm9Gvi68-2" value="" style="endArrow=none;html=1;rounded=0;exitX=0;exitY=0.5;exitDx=0;exitDy=0;entryX=1;entryY=0.3333333333333333;entryDx=0;entryDy=0;entryPerimeter=0;" edge="1" parent="1" source="DburSkhsFi0roDUU-yV9-6" target="RtMiJazuxFvzRtgO_Lz0-1">
          <mxGeometry width="50" height="50" relative="1" as="geometry">
            <mxPoint x="520" y="422" as="sourcePoint" />
            <mxPoint x="400" y="350" as="targetPoint" />
          </mxGeometry>
        </mxCell>
        <mxCell id="rO2-xOWigslmhm9Gvi68-3" value="" style="endArrow=none;html=1;rounded=0;exitX=0;exitY=0.5;exitDx=0;exitDy=0;entryX=1;entryY=0.3333333333333333;entryDx=0;entryDy=0;entryPerimeter=0;" edge="1" parent="1" source="RtMiJazuxFvzRtgO_Lz0-2" target="JpJBaen8LDR_DQLkYO8A-1">
          <mxGeometry width="50" height="50" relative="1" as="geometry">
            <mxPoint x="530" y="612" as="sourcePoint" />
            <mxPoint x="410" y="450" as="targetPoint" />
          </mxGeometry>
        </mxCell>
        <mxCell id="rO2-xOWigslmhm9Gvi68-4" value="" style="endArrow=none;html=1;rounded=0;entryX=1;entryY=0.3333333333333333;entryDx=0;entryDy=0;entryPerimeter=0;" edge="1" parent="1" source="DburSkhsFi0roDUU-yV9-3" target="RtMiJazuxFvzRtgO_Lz0-1">
          <mxGeometry width="50" height="50" relative="1" as="geometry">
            <mxPoint x="570" y="422" as="sourcePoint" />
            <mxPoint x="450" y="350" as="targetPoint" />
          </mxGeometry>
        </mxCell>
        <mxCell id="rO2-xOWigslmhm9Gvi68-5" value="" style="endArrow=none;html=1;rounded=0;entryX=1;entryY=0.5;entryDx=0;entryDy=0;exitX=0;exitY=0.3333333333333333;exitDx=0;exitDy=0;exitPerimeter=0;" edge="1" parent="1" source="smbjot6jxQItHd3snsJP-1" target="DburSkhsFi0roDUU-yV9-1">
          <mxGeometry width="50" height="50" relative="1" as="geometry">
            <mxPoint x="388" y="767" as="sourcePoint" />
            <mxPoint x="438" y="717" as="targetPoint" />
          </mxGeometry>
        </mxCell>
        <mxCell id="rO2-xOWigslmhm9Gvi68-6" value="" style="endArrow=none;html=1;rounded=0;entryX=1;entryY=0.5;entryDx=0;entryDy=0;exitX=0;exitY=0.3333333333333333;exitDx=0;exitDy=0;exitPerimeter=0;" edge="1" parent="1" source="smbjot6jxQItHd3snsJP-1" target="RtMiJazuxFvzRtgO_Lz0-4">
          <mxGeometry width="50" height="50" relative="1" as="geometry">
            <mxPoint x="948" y="567" as="sourcePoint" />
            <mxPoint x="838" y="607" as="targetPoint" />
          </mxGeometry>
        </mxCell>
        <mxCell id="goqPh1Pq_qf9rnN5-Mhq-2" value="&lt;span style=&quot;text-wrap-mode: nowrap;&quot;&gt;&lt;b&gt;Graph Optimization System (Backend)&lt;/b&gt;&lt;/span&gt;" style="text;html=1;align=center;verticalAlign=middle;whiteSpace=wrap;rounded=0;" vertex="1" parent="1">
          <mxGeometry x="580" y="80" width="60" height="30" as="geometry" />
        </mxCell>
        <mxCell id="AvxwZHaGcGYu7SnWvq1d-1" value="Validate JWT on every request" style="ellipse;whiteSpace=wrap;html=1;fillColor=#fff2cc;strokeColor=#d6b656;" vertex="1" parent="1">
          <mxGeometry x="643" y="297" width="140" height="70" as="geometry" />
        </mxCell>
        <mxCell id="AvxwZHaGcGYu7SnWvq1d-2" value="Register token transactions" style="ellipse;whiteSpace=wrap;html=1;fillColor=#f5f5f5;fontColor=#333333;strokeColor=#666666;" vertex="1" parent="1">
          <mxGeometry x="610" y="156" width="140" height="70" as="geometry" />
        </mxCell>
        <mxCell id="AvxwZHaGcGYu7SnWvq1d-3" value="" style="endArrow=none;html=1;rounded=0;exitX=0;exitY=0.5;exitDx=0;exitDy=0;entryX=1;entryY=0.5;entryDx=0;entryDy=0;" edge="1" parent="1" source="AvxwZHaGcGYu7SnWvq1d-1" target="DburSkhsFi0roDUU-yV9-2">
          <mxGeometry width="50" height="50" relative="1" as="geometry">
            <mxPoint x="726" y="239" as="sourcePoint" />
            <mxPoint x="606" y="343" as="targetPoint" />
          </mxGeometry>
        </mxCell>
        <mxCell id="AvxwZHaGcGYu7SnWvq1d-4" value="" style="endArrow=none;html=1;rounded=0;exitX=0;exitY=0.5;exitDx=0;exitDy=0;entryX=1;entryY=0.5;entryDx=0;entryDy=0;" edge="1" parent="1" source="AvxwZHaGcGYu7SnWvq1d-1" target="DburSkhsFi0roDUU-yV9-3">
          <mxGeometry width="50" height="50" relative="1" as="geometry">
            <mxPoint x="763" y="286" as="sourcePoint" />
            <mxPoint x="689" y="190" as="targetPoint" />
          </mxGeometry>
        </mxCell>
        <mxCell id="AvxwZHaGcGYu7SnWvq1d-5" value="" style="endArrow=none;html=1;rounded=0;entryX=1;entryY=0.5;entryDx=0;entryDy=0;" edge="1" parent="1" target="DburSkhsFi0roDUU-yV9-5">
          <mxGeometry width="50" height="50" relative="1" as="geometry">
            <mxPoint x="643" y="330" as="sourcePoint" />
            <mxPoint x="664" y="298" as="targetPoint" />
          </mxGeometry>
        </mxCell>
        <mxCell id="AvxwZHaGcGYu7SnWvq1d-7" value="" style="endArrow=none;html=1;rounded=0;entryX=1;entryY=0.5;entryDx=0;entryDy=0;exitX=0;exitY=0.5;exitDx=0;exitDy=0;" edge="1" parent="1" source="AvxwZHaGcGYu7SnWvq1d-1" target="DburSkhsFi0roDUU-yV9-6">
          <mxGeometry width="50" height="50" relative="1" as="geometry">
            <mxPoint x="739" y="348" as="sourcePoint" />
            <mxPoint x="665" y="435" as="targetPoint" />
          </mxGeometry>
        </mxCell>
        <mxCell id="AvxwZHaGcGYu7SnWvq1d-8" value="" style="endArrow=none;html=1;rounded=0;entryX=0.993;entryY=0.421;entryDx=0;entryDy=0;exitX=0;exitY=0.5;exitDx=0;exitDy=0;entryPerimeter=0;" edge="1" parent="1" source="AvxwZHaGcGYu7SnWvq1d-1" target="RtMiJazuxFvzRtgO_Lz0-2">
          <mxGeometry width="50" height="50" relative="1" as="geometry">
            <mxPoint x="790" y="415" as="sourcePoint" />
            <mxPoint x="707" y="558" as="targetPoint" />
          </mxGeometry>
        </mxCell>
        <mxCell id="AvxwZHaGcGYu7SnWvq1d-10" value="" style="endArrow=none;dashed=1;html=1;strokeWidth=2;rounded=0;entryX=0.5;entryY=0;entryDx=0;entryDy=0;exitX=0.45;exitY=0.986;exitDx=0;exitDy=0;exitPerimeter=0;" edge="1" parent="1" source="AvxwZHaGcGYu7SnWvq1d-2" target="AvxwZHaGcGYu7SnWvq1d-1">
          <mxGeometry width="50" height="50" relative="1" as="geometry">
            <mxPoint x="781" y="265" as="sourcePoint" />
            <mxPoint x="552" y="417" as="targetPoint" />
          </mxGeometry>
        </mxCell>
        <mxCell id="kv5c94-rD1L4BufFEUVY-1" value="" style="rounded=0;whiteSpace=wrap;html=1;fillColor=none;" vertex="1" parent="1">
          <mxGeometry x="346" y="123" width="510" height="610" as="geometry" />
        </mxCell>
      </root>
    </mxGraphModel>
  </diagram>
  <diagram id="H1DLGQrm7vG9DLoExGIX" name="SD - Model Creation">
    <mxGraphModel dx="1426" dy="743" grid="0" gridSize="10" guides="1" tooltips="1" connect="1" arrows="1" fold="1" page="1" pageScale="1" pageWidth="1100" pageHeight="850" math="0" shadow="0">
      <root>
        <mxCell id="0" />
        <mxCell id="1" parent="0" />
        <mxCell id="ZN3sLQ8KNwm0Gd67nCO3-1" value="Actor" style="shape=umlActor;verticalLabelPosition=bottom;verticalAlign=top;html=1;" vertex="1" parent="1">
          <mxGeometry x="80" y="80" width="30" height="60" as="geometry" />
        </mxCell>
        <mxCell id="ZN3sLQ8KNwm0Gd67nCO3-2" value="Actor" style="shape=umlActor;verticalLabelPosition=bottom;verticalAlign=top;html=1;" vertex="1" parent="1">
          <mxGeometry x="80" y="730" width="30" height="60" as="geometry" />
        </mxCell>
        <mxCell id="ZN3sLQ8KNwm0Gd67nCO3-3" value="" style="html=1;points=[[0,0,0,0,5],[0,1,0,0,-5],[1,0,0,0,5],[1,1,0,0,-5]];perimeter=orthogonalPerimeter;outlineConnect=0;targetShapes=umlLifeline;portConstraint=eastwest;newEdgeStyle={&quot;curved&quot;:0,&quot;rounded&quot;:0};" vertex="1" parent="1">
          <mxGeometry x="90" y="160" width="10" height="560" as="geometry" />
        </mxCell>
        <mxCell id="ZN3sLQ8KNwm0Gd67nCO3-4" value="APP" style="html=1;whiteSpace=wrap;" vertex="1" parent="1">
          <mxGeometry x="130" y="90" width="110" height="50" as="geometry" />
        </mxCell>
        <mxCell id="ZN3sLQ8KNwm0Gd67nCO3-5" value="Middleware JWT validates " style="html=1;whiteSpace=wrap;" vertex="1" parent="1">
          <mxGeometry x="270" y="90" width="110" height="50" as="geometry" />
        </mxCell>
        <mxCell id="ZN3sLQ8KNwm0Gd67nCO3-6" value="ModelService" style="html=1;whiteSpace=wrap;" vertex="1" parent="1">
          <mxGeometry x="540" y="90" width="110" height="50" as="geometry" />
        </mxCell>
        <mxCell id="ZN3sLQ8KNwm0Gd67nCO3-7" value="UserRepository  " style="html=1;whiteSpace=wrap;" vertex="1" parent="1">
          <mxGeometry x="670" y="90" width="110" height="50" as="geometry" />
        </mxCell>
        <mxCell id="ZN3sLQ8KNwm0Gd67nCO3-8" value="UserDao" style="html=1;whiteSpace=wrap;" vertex="1" parent="1">
          <mxGeometry x="800" y="90" width="110" height="50" as="geometry" />
        </mxCell>
        <mxCell id="ZN3sLQ8KNwm0Gd67nCO3-12" value="ModelController" style="html=1;whiteSpace=wrap;" vertex="1" parent="1">
          <mxGeometry x="410" y="90" width="110" height="50" as="geometry" />
        </mxCell>
        <mxCell id="ZN3sLQ8KNwm0Gd67nCO3-13" value="UserModel" style="html=1;whiteSpace=wrap;" vertex="1" parent="1">
          <mxGeometry x="930" y="90" width="110" height="50" as="geometry" />
        </mxCell>
        <mxCell id="ZN3sLQ8KNwm0Gd67nCO3-14" value="APP" style="html=1;whiteSpace=wrap;" vertex="1" parent="1">
          <mxGeometry x="130" y="750" width="110" height="50" as="geometry" />
        </mxCell>
        <mxCell id="ZN3sLQ8KNwm0Gd67nCO3-15" value="Middleware JWT validates " style="html=1;whiteSpace=wrap;" vertex="1" parent="1">
          <mxGeometry x="270" y="750" width="110" height="50" as="geometry" />
        </mxCell>
        <mxCell id="ZN3sLQ8KNwm0Gd67nCO3-16" value="ModelService" style="html=1;whiteSpace=wrap;" vertex="1" parent="1">
          <mxGeometry x="540" y="750" width="110" height="50" as="geometry" />
        </mxCell>
        <mxCell id="ZN3sLQ8KNwm0Gd67nCO3-17" value="UserRepository  " style="html=1;whiteSpace=wrap;" vertex="1" parent="1">
          <mxGeometry x="670" y="750" width="110" height="50" as="geometry" />
        </mxCell>
        <mxCell id="ZN3sLQ8KNwm0Gd67nCO3-18" value="UserDao" style="html=1;whiteSpace=wrap;" vertex="1" parent="1">
          <mxGeometry x="800" y="750" width="110" height="50" as="geometry" />
        </mxCell>
        <mxCell id="ZN3sLQ8KNwm0Gd67nCO3-19" value="ModelController" style="html=1;whiteSpace=wrap;" vertex="1" parent="1">
          <mxGeometry x="410" y="750" width="110" height="50" as="geometry" />
        </mxCell>
        <mxCell id="ZN3sLQ8KNwm0Gd67nCO3-20" value="UserModel" style="html=1;whiteSpace=wrap;" vertex="1" parent="1">
          <mxGeometry x="930" y="750" width="110" height="50" as="geometry" />
        </mxCell>
        <mxCell id="ZN3sLQ8KNwm0Gd67nCO3-22" value="" style="endArrow=none;html=1;rounded=0;entryX=0.5;entryY=1;entryDx=0;entryDy=0;exitX=0.5;exitY=0;exitDx=0;exitDy=0;" edge="1" parent="1" source="ZN3sLQ8KNwm0Gd67nCO3-14" target="ZN3sLQ8KNwm0Gd67nCO3-4">
          <mxGeometry width="50" height="50" relative="1" as="geometry">
            <mxPoint x="530" y="500" as="sourcePoint" />
            <mxPoint x="580" y="450" as="targetPoint" />
          </mxGeometry>
        </mxCell>
        <mxCell id="ZN3sLQ8KNwm0Gd67nCO3-23" value="" style="endArrow=none;html=1;rounded=0;entryX=0.5;entryY=1;entryDx=0;entryDy=0;exitX=0.5;exitY=0;exitDx=0;exitDy=0;" edge="1" parent="1" source="ZN3sLQ8KNwm0Gd67nCO3-15" target="ZN3sLQ8KNwm0Gd67nCO3-5">
          <mxGeometry width="50" height="50" relative="1" as="geometry">
            <mxPoint x="420" y="1030" as="sourcePoint" />
            <mxPoint x="420" y="420" as="targetPoint" />
          </mxGeometry>
        </mxCell>
        <mxCell id="ZN3sLQ8KNwm0Gd67nCO3-24" value="" style="endArrow=none;html=1;rounded=0;entryX=0.5;entryY=1;entryDx=0;entryDy=0;exitX=0.5;exitY=0;exitDx=0;exitDy=0;" edge="1" parent="1" source="ZN3sLQ8KNwm0Gd67nCO3-19" target="ZN3sLQ8KNwm0Gd67nCO3-12">
          <mxGeometry width="50" height="50" relative="1" as="geometry">
            <mxPoint x="500" y="910" as="sourcePoint" />
            <mxPoint x="500" y="300" as="targetPoint" />
          </mxGeometry>
        </mxCell>
        <mxCell id="ZN3sLQ8KNwm0Gd67nCO3-25" value="" style="endArrow=none;html=1;rounded=0;entryX=0.5;entryY=1;entryDx=0;entryDy=0;exitX=0.5;exitY=0;exitDx=0;exitDy=0;" edge="1" parent="1">
          <mxGeometry width="50" height="50" relative="1" as="geometry">
            <mxPoint x="600" y="750" as="sourcePoint" />
            <mxPoint x="600" y="140" as="targetPoint" />
          </mxGeometry>
        </mxCell>
        <mxCell id="ZN3sLQ8KNwm0Gd67nCO3-26" value="" style="endArrow=none;html=1;rounded=0;entryX=0.5;entryY=1;entryDx=0;entryDy=0;exitX=0.5;exitY=0;exitDx=0;exitDy=0;" edge="1" parent="1">
          <mxGeometry width="50" height="50" relative="1" as="geometry">
            <mxPoint x="720" y="750" as="sourcePoint" />
            <mxPoint x="720" y="140" as="targetPoint" />
          </mxGeometry>
        </mxCell>
        <mxCell id="ZN3sLQ8KNwm0Gd67nCO3-27" value="" style="endArrow=none;html=1;rounded=0;entryX=0.5;entryY=1;entryDx=0;entryDy=0;exitX=0.5;exitY=0;exitDx=0;exitDy=0;" edge="1" parent="1">
          <mxGeometry width="50" height="50" relative="1" as="geometry">
            <mxPoint x="850" y="750" as="sourcePoint" />
            <mxPoint x="850" y="140" as="targetPoint" />
          </mxGeometry>
        </mxCell>
        <mxCell id="ZN3sLQ8KNwm0Gd67nCO3-28" value="" style="endArrow=none;html=1;rounded=0;entryX=0.5;entryY=1;entryDx=0;entryDy=0;exitX=0.5;exitY=0;exitDx=0;exitDy=0;" edge="1" parent="1">
          <mxGeometry width="50" height="50" relative="1" as="geometry">
            <mxPoint x="980" y="750" as="sourcePoint" />
            <mxPoint x="980" y="140" as="targetPoint" />
          </mxGeometry>
        </mxCell>
      </root>
    </mxGraphModel>
  </diagram>
  <diagram id="yuCEn4OR0IN-cuP3T3W_" name="SD - Model Execute">
    <mxGraphModel dx="1426" dy="743" grid="0" gridSize="10" guides="1" tooltips="1" connect="1" arrows="1" fold="1" page="1" pageScale="1" pageWidth="1100" pageHeight="850" math="0" shadow="0">
      <root>
        <mxCell id="0" />
        <mxCell id="1" parent="0" />
        <mxCell id="FPW-ruYwdrErCcnxItJk-1" value="Actor" style="shape=umlActor;verticalLabelPosition=bottom;verticalAlign=top;html=1;" vertex="1" parent="1">
          <mxGeometry x="75" y="17" width="30" height="60" as="geometry" />
        </mxCell>
        <mxCell id="FPW-ruYwdrErCcnxItJk-2" value="Actor" style="shape=umlActor;verticalLabelPosition=bottom;verticalAlign=top;html=1;" vertex="1" parent="1">
          <mxGeometry x="75" y="667" width="30" height="60" as="geometry" />
        </mxCell>
        <mxCell id="FPW-ruYwdrErCcnxItJk-3" value="" style="html=1;points=[[0,0,0,0,5],[0,1,0,0,-5],[1,0,0,0,5],[1,1,0,0,-5]];perimeter=orthogonalPerimeter;outlineConnect=0;targetShapes=umlLifeline;portConstraint=eastwest;newEdgeStyle={&quot;curved&quot;:0,&quot;rounded&quot;:0};" vertex="1" parent="1">
          <mxGeometry x="85" y="97" width="10" height="560" as="geometry" />
        </mxCell>
        <mxCell id="FPW-ruYwdrErCcnxItJk-4" value="APP" style="html=1;whiteSpace=wrap;" vertex="1" parent="1">
          <mxGeometry x="125" y="27" width="110" height="50" as="geometry" />
        </mxCell>
        <mxCell id="FPW-ruYwdrErCcnxItJk-5" value="Middleware JWT validates " style="html=1;whiteSpace=wrap;" vertex="1" parent="1">
          <mxGeometry x="265" y="27" width="110" height="50" as="geometry" />
        </mxCell>
        <mxCell id="FPW-ruYwdrErCcnxItJk-6" value="ModelService" style="html=1;whiteSpace=wrap;" vertex="1" parent="1">
          <mxGeometry x="535" y="27" width="110" height="50" as="geometry" />
        </mxCell>
        <mxCell id="FPW-ruYwdrErCcnxItJk-7" value="UserRepository  " style="html=1;whiteSpace=wrap;" vertex="1" parent="1">
          <mxGeometry x="665" y="27" width="110" height="50" as="geometry" />
        </mxCell>
        <mxCell id="FPW-ruYwdrErCcnxItJk-8" value="UserDao" style="html=1;whiteSpace=wrap;" vertex="1" parent="1">
          <mxGeometry x="795" y="27" width="110" height="50" as="geometry" />
        </mxCell>
        <mxCell id="FPW-ruYwdrErCcnxItJk-9" value="ModelController" style="html=1;whiteSpace=wrap;" vertex="1" parent="1">
          <mxGeometry x="405" y="27" width="110" height="50" as="geometry" />
        </mxCell>
        <mxCell id="FPW-ruYwdrErCcnxItJk-10" value="UserModel" style="html=1;whiteSpace=wrap;" vertex="1" parent="1">
          <mxGeometry x="925" y="27" width="110" height="50" as="geometry" />
        </mxCell>
        <mxCell id="FPW-ruYwdrErCcnxItJk-11" value="APP" style="html=1;whiteSpace=wrap;" vertex="1" parent="1">
          <mxGeometry x="125" y="687" width="110" height="50" as="geometry" />
        </mxCell>
        <mxCell id="FPW-ruYwdrErCcnxItJk-12" value="Middleware JWT validates " style="html=1;whiteSpace=wrap;" vertex="1" parent="1">
          <mxGeometry x="265" y="687" width="110" height="50" as="geometry" />
        </mxCell>
        <mxCell id="FPW-ruYwdrErCcnxItJk-13" value="ModelService" style="html=1;whiteSpace=wrap;" vertex="1" parent="1">
          <mxGeometry x="535" y="687" width="110" height="50" as="geometry" />
        </mxCell>
        <mxCell id="FPW-ruYwdrErCcnxItJk-14" value="UserRepository  " style="html=1;whiteSpace=wrap;" vertex="1" parent="1">
          <mxGeometry x="665" y="687" width="110" height="50" as="geometry" />
        </mxCell>
        <mxCell id="FPW-ruYwdrErCcnxItJk-15" value="UserDao" style="html=1;whiteSpace=wrap;" vertex="1" parent="1">
          <mxGeometry x="795" y="687" width="110" height="50" as="geometry" />
        </mxCell>
        <mxCell id="FPW-ruYwdrErCcnxItJk-16" value="ModelController" style="html=1;whiteSpace=wrap;" vertex="1" parent="1">
          <mxGeometry x="405" y="687" width="110" height="50" as="geometry" />
        </mxCell>
        <mxCell id="FPW-ruYwdrErCcnxItJk-17" value="UserModel" style="html=1;whiteSpace=wrap;" vertex="1" parent="1">
          <mxGeometry x="925" y="687" width="110" height="50" as="geometry" />
        </mxCell>
        <mxCell id="FPW-ruYwdrErCcnxItJk-18" value="" style="endArrow=none;html=1;rounded=0;entryX=0.5;entryY=1;entryDx=0;entryDy=0;exitX=0.5;exitY=0;exitDx=0;exitDy=0;" edge="1" parent="1" source="FPW-ruYwdrErCcnxItJk-11" target="FPW-ruYwdrErCcnxItJk-4">
          <mxGeometry width="50" height="50" relative="1" as="geometry">
            <mxPoint x="525" y="437" as="sourcePoint" />
            <mxPoint x="575" y="387" as="targetPoint" />
          </mxGeometry>
        </mxCell>
        <mxCell id="FPW-ruYwdrErCcnxItJk-19" value="" style="endArrow=none;html=1;rounded=0;entryX=0.5;entryY=1;entryDx=0;entryDy=0;exitX=0.5;exitY=0;exitDx=0;exitDy=0;" edge="1" parent="1" source="FPW-ruYwdrErCcnxItJk-12" target="FPW-ruYwdrErCcnxItJk-5">
          <mxGeometry width="50" height="50" relative="1" as="geometry">
            <mxPoint x="415" y="967" as="sourcePoint" />
            <mxPoint x="415" y="357" as="targetPoint" />
          </mxGeometry>
        </mxCell>
        <mxCell id="FPW-ruYwdrErCcnxItJk-20" value="" style="endArrow=none;html=1;rounded=0;entryX=0.5;entryY=1;entryDx=0;entryDy=0;exitX=0.5;exitY=0;exitDx=0;exitDy=0;" edge="1" parent="1" source="FPW-ruYwdrErCcnxItJk-16" target="FPW-ruYwdrErCcnxItJk-9">
          <mxGeometry width="50" height="50" relative="1" as="geometry">
            <mxPoint x="495" y="847" as="sourcePoint" />
            <mxPoint x="495" y="237" as="targetPoint" />
          </mxGeometry>
        </mxCell>
        <mxCell id="FPW-ruYwdrErCcnxItJk-21" value="" style="endArrow=none;html=1;rounded=0;entryX=0.5;entryY=1;entryDx=0;entryDy=0;exitX=0.5;exitY=0;exitDx=0;exitDy=0;" edge="1" parent="1">
          <mxGeometry width="50" height="50" relative="1" as="geometry">
            <mxPoint x="595" y="687" as="sourcePoint" />
            <mxPoint x="595" y="77" as="targetPoint" />
          </mxGeometry>
        </mxCell>
        <mxCell id="FPW-ruYwdrErCcnxItJk-22" value="" style="endArrow=none;html=1;rounded=0;entryX=0.5;entryY=1;entryDx=0;entryDy=0;exitX=0.5;exitY=0;exitDx=0;exitDy=0;" edge="1" parent="1">
          <mxGeometry width="50" height="50" relative="1" as="geometry">
            <mxPoint x="715" y="687" as="sourcePoint" />
            <mxPoint x="715" y="77" as="targetPoint" />
          </mxGeometry>
        </mxCell>
        <mxCell id="FPW-ruYwdrErCcnxItJk-23" value="" style="endArrow=none;html=1;rounded=0;entryX=0.5;entryY=1;entryDx=0;entryDy=0;exitX=0.5;exitY=0;exitDx=0;exitDy=0;" edge="1" parent="1">
          <mxGeometry width="50" height="50" relative="1" as="geometry">
            <mxPoint x="845" y="687" as="sourcePoint" />
            <mxPoint x="845" y="77" as="targetPoint" />
          </mxGeometry>
        </mxCell>
        <mxCell id="FPW-ruYwdrErCcnxItJk-24" value="" style="endArrow=none;html=1;rounded=0;entryX=0.5;entryY=1;entryDx=0;entryDy=0;exitX=0.5;exitY=0;exitDx=0;exitDy=0;" edge="1" parent="1">
          <mxGeometry width="50" height="50" relative="1" as="geometry">
            <mxPoint x="975" y="687" as="sourcePoint" />
            <mxPoint x="975" y="77" as="targetPoint" />
          </mxGeometry>
        </mxCell>
      </root>
    </mxGraphModel>
  </diagram>
  <diagram id="JU_Nsl_usfhIWoVvGP3x" name="SD - Edge Weight Change">
    <mxGraphModel dx="1426" dy="743" grid="0" gridSize="10" guides="1" tooltips="1" connect="1" arrows="1" fold="1" page="1" pageScale="1" pageWidth="1100" pageHeight="850" math="0" shadow="0">
      <root>
        <mxCell id="0" />
        <mxCell id="1" parent="0" />
        <mxCell id="PDb3QEkXwjr5mpnbDxmJ-25" value="Actor" style="shape=umlActor;verticalLabelPosition=bottom;verticalAlign=top;html=1;" vertex="1" parent="1">
          <mxGeometry x="70" y="65" width="30" height="60" as="geometry" />
        </mxCell>
        <mxCell id="PDb3QEkXwjr5mpnbDxmJ-26" value="Actor" style="shape=umlActor;verticalLabelPosition=bottom;verticalAlign=top;html=1;" vertex="1" parent="1">
          <mxGeometry x="70" y="715" width="30" height="60" as="geometry" />
        </mxCell>
        <mxCell id="PDb3QEkXwjr5mpnbDxmJ-27" value="" style="html=1;points=[[0,0,0,0,5],[0,1,0,0,-5],[1,0,0,0,5],[1,1,0,0,-5]];perimeter=orthogonalPerimeter;outlineConnect=0;targetShapes=umlLifeline;portConstraint=eastwest;newEdgeStyle={&quot;curved&quot;:0,&quot;rounded&quot;:0};" vertex="1" parent="1">
          <mxGeometry x="80" y="145" width="10" height="560" as="geometry" />
        </mxCell>
        <mxCell id="PDb3QEkXwjr5mpnbDxmJ-28" value="APP" style="html=1;whiteSpace=wrap;" vertex="1" parent="1">
          <mxGeometry x="120" y="75" width="110" height="50" as="geometry" />
        </mxCell>
        <mxCell id="PDb3QEkXwjr5mpnbDxmJ-29" value="Middleware JWT validates " style="html=1;whiteSpace=wrap;" vertex="1" parent="1">
          <mxGeometry x="260" y="75" width="110" height="50" as="geometry" />
        </mxCell>
        <mxCell id="PDb3QEkXwjr5mpnbDxmJ-30" value="ModelService" style="html=1;whiteSpace=wrap;" vertex="1" parent="1">
          <mxGeometry x="530" y="75" width="110" height="50" as="geometry" />
        </mxCell>
        <mxCell id="PDb3QEkXwjr5mpnbDxmJ-31" value="UserRepository  " style="html=1;whiteSpace=wrap;" vertex="1" parent="1">
          <mxGeometry x="660" y="75" width="110" height="50" as="geometry" />
        </mxCell>
        <mxCell id="PDb3QEkXwjr5mpnbDxmJ-32" value="UserDao" style="html=1;whiteSpace=wrap;" vertex="1" parent="1">
          <mxGeometry x="790" y="75" width="110" height="50" as="geometry" />
        </mxCell>
        <mxCell id="PDb3QEkXwjr5mpnbDxmJ-33" value="ModelController" style="html=1;whiteSpace=wrap;" vertex="1" parent="1">
          <mxGeometry x="400" y="75" width="110" height="50" as="geometry" />
        </mxCell>
        <mxCell id="PDb3QEkXwjr5mpnbDxmJ-34" value="UserModel" style="html=1;whiteSpace=wrap;" vertex="1" parent="1">
          <mxGeometry x="920" y="75" width="110" height="50" as="geometry" />
        </mxCell>
        <mxCell id="PDb3QEkXwjr5mpnbDxmJ-35" value="APP" style="html=1;whiteSpace=wrap;" vertex="1" parent="1">
          <mxGeometry x="120" y="735" width="110" height="50" as="geometry" />
        </mxCell>
        <mxCell id="PDb3QEkXwjr5mpnbDxmJ-36" value="Middleware JWT validates " style="html=1;whiteSpace=wrap;" vertex="1" parent="1">
          <mxGeometry x="260" y="735" width="110" height="50" as="geometry" />
        </mxCell>
        <mxCell id="PDb3QEkXwjr5mpnbDxmJ-37" value="ModelService" style="html=1;whiteSpace=wrap;" vertex="1" parent="1">
          <mxGeometry x="530" y="735" width="110" height="50" as="geometry" />
        </mxCell>
        <mxCell id="PDb3QEkXwjr5mpnbDxmJ-38" value="UserRepository  " style="html=1;whiteSpace=wrap;" vertex="1" parent="1">
          <mxGeometry x="660" y="735" width="110" height="50" as="geometry" />
        </mxCell>
        <mxCell id="PDb3QEkXwjr5mpnbDxmJ-39" value="UserDao" style="html=1;whiteSpace=wrap;" vertex="1" parent="1">
          <mxGeometry x="790" y="735" width="110" height="50" as="geometry" />
        </mxCell>
        <mxCell id="PDb3QEkXwjr5mpnbDxmJ-40" value="ModelController" style="html=1;whiteSpace=wrap;" vertex="1" parent="1">
          <mxGeometry x="400" y="735" width="110" height="50" as="geometry" />
        </mxCell>
        <mxCell id="PDb3QEkXwjr5mpnbDxmJ-41" value="UserModel" style="html=1;whiteSpace=wrap;" vertex="1" parent="1">
          <mxGeometry x="920" y="735" width="110" height="50" as="geometry" />
        </mxCell>
        <mxCell id="PDb3QEkXwjr5mpnbDxmJ-42" value="" style="endArrow=none;html=1;rounded=0;entryX=0.5;entryY=1;entryDx=0;entryDy=0;exitX=0.5;exitY=0;exitDx=0;exitDy=0;" edge="1" parent="1" source="PDb3QEkXwjr5mpnbDxmJ-35" target="PDb3QEkXwjr5mpnbDxmJ-28">
          <mxGeometry width="50" height="50" relative="1" as="geometry">
            <mxPoint x="520" y="485" as="sourcePoint" />
            <mxPoint x="570" y="435" as="targetPoint" />
          </mxGeometry>
        </mxCell>
        <mxCell id="PDb3QEkXwjr5mpnbDxmJ-43" value="" style="endArrow=none;html=1;rounded=0;entryX=0.5;entryY=1;entryDx=0;entryDy=0;exitX=0.5;exitY=0;exitDx=0;exitDy=0;" edge="1" parent="1" source="PDb3QEkXwjr5mpnbDxmJ-36" target="PDb3QEkXwjr5mpnbDxmJ-29">
          <mxGeometry width="50" height="50" relative="1" as="geometry">
            <mxPoint x="410" y="1015" as="sourcePoint" />
            <mxPoint x="410" y="405" as="targetPoint" />
          </mxGeometry>
        </mxCell>
        <mxCell id="PDb3QEkXwjr5mpnbDxmJ-44" value="" style="endArrow=none;html=1;rounded=0;entryX=0.5;entryY=1;entryDx=0;entryDy=0;exitX=0.5;exitY=0;exitDx=0;exitDy=0;" edge="1" parent="1" source="PDb3QEkXwjr5mpnbDxmJ-40" target="PDb3QEkXwjr5mpnbDxmJ-33">
          <mxGeometry width="50" height="50" relative="1" as="geometry">
            <mxPoint x="490" y="895" as="sourcePoint" />
            <mxPoint x="490" y="285" as="targetPoint" />
          </mxGeometry>
        </mxCell>
        <mxCell id="PDb3QEkXwjr5mpnbDxmJ-45" value="" style="endArrow=none;html=1;rounded=0;entryX=0.5;entryY=1;entryDx=0;entryDy=0;exitX=0.5;exitY=0;exitDx=0;exitDy=0;" edge="1" parent="1">
          <mxGeometry width="50" height="50" relative="1" as="geometry">
            <mxPoint x="590" y="735" as="sourcePoint" />
            <mxPoint x="590" y="125" as="targetPoint" />
          </mxGeometry>
        </mxCell>
        <mxCell id="PDb3QEkXwjr5mpnbDxmJ-46" value="" style="endArrow=none;html=1;rounded=0;entryX=0.5;entryY=1;entryDx=0;entryDy=0;exitX=0.5;exitY=0;exitDx=0;exitDy=0;" edge="1" parent="1">
          <mxGeometry width="50" height="50" relative="1" as="geometry">
            <mxPoint x="710" y="735" as="sourcePoint" />
            <mxPoint x="710" y="125" as="targetPoint" />
          </mxGeometry>
        </mxCell>
        <mxCell id="PDb3QEkXwjr5mpnbDxmJ-47" value="" style="endArrow=none;html=1;rounded=0;entryX=0.5;entryY=1;entryDx=0;entryDy=0;exitX=0.5;exitY=0;exitDx=0;exitDy=0;" edge="1" parent="1">
          <mxGeometry width="50" height="50" relative="1" as="geometry">
            <mxPoint x="840" y="735" as="sourcePoint" />
            <mxPoint x="840" y="125" as="targetPoint" />
          </mxGeometry>
        </mxCell>
        <mxCell id="PDb3QEkXwjr5mpnbDxmJ-48" value="" style="endArrow=none;html=1;rounded=0;entryX=0.5;entryY=1;entryDx=0;entryDy=0;exitX=0.5;exitY=0;exitDx=0;exitDy=0;" edge="1" parent="1">
          <mxGeometry width="50" height="50" relative="1" as="geometry">
            <mxPoint x="970" y="735" as="sourcePoint" />
            <mxPoint x="970" y="125" as="targetPoint" />
          </mxGeometry>
        </mxCell>
      </root>
    </mxGraphModel>
  </diagram>
  <diagram id="mODL_hIXrzhaL8uuWJtP" name="SD - Simulation">
    <mxGraphModel dx="1426" dy="743" grid="0" gridSize="10" guides="1" tooltips="1" connect="1" arrows="1" fold="1" page="1" pageScale="1" pageWidth="1100" pageHeight="850" math="0" shadow="0">
      <root>
        <mxCell id="0" />
        <mxCell id="1" parent="0" />
        <mxCell id="jmafxJ4Nut-tLMCwEQv0-1" value="Actor" style="shape=umlActor;verticalLabelPosition=bottom;verticalAlign=top;html=1;" vertex="1" parent="1">
          <mxGeometry x="86" y="57" width="30" height="60" as="geometry" />
        </mxCell>
        <mxCell id="jmafxJ4Nut-tLMCwEQv0-2" value="Actor" style="shape=umlActor;verticalLabelPosition=bottom;verticalAlign=top;html=1;" vertex="1" parent="1">
          <mxGeometry x="86" y="707" width="30" height="60" as="geometry" />
        </mxCell>
        <mxCell id="jmafxJ4Nut-tLMCwEQv0-3" value="" style="html=1;points=[[0,0,0,0,5],[0,1,0,0,-5],[1,0,0,0,5],[1,1,0,0,-5]];perimeter=orthogonalPerimeter;outlineConnect=0;targetShapes=umlLifeline;portConstraint=eastwest;newEdgeStyle={&quot;curved&quot;:0,&quot;rounded&quot;:0};" vertex="1" parent="1">
          <mxGeometry x="96" y="137" width="10" height="560" as="geometry" />
        </mxCell>
        <mxCell id="jmafxJ4Nut-tLMCwEQv0-4" value="APP" style="html=1;whiteSpace=wrap;" vertex="1" parent="1">
          <mxGeometry x="136" y="67" width="110" height="50" as="geometry" />
        </mxCell>
        <mxCell id="jmafxJ4Nut-tLMCwEQv0-5" value="Middleware JWT validates " style="html=1;whiteSpace=wrap;" vertex="1" parent="1">
          <mxGeometry x="276" y="67" width="110" height="50" as="geometry" />
        </mxCell>
        <mxCell id="jmafxJ4Nut-tLMCwEQv0-6" value="ModelService" style="html=1;whiteSpace=wrap;" vertex="1" parent="1">
          <mxGeometry x="546" y="67" width="110" height="50" as="geometry" />
        </mxCell>
        <mxCell id="jmafxJ4Nut-tLMCwEQv0-7" value="UserRepository  " style="html=1;whiteSpace=wrap;" vertex="1" parent="1">
          <mxGeometry x="676" y="67" width="110" height="50" as="geometry" />
        </mxCell>
        <mxCell id="jmafxJ4Nut-tLMCwEQv0-8" value="UserDao" style="html=1;whiteSpace=wrap;" vertex="1" parent="1">
          <mxGeometry x="806" y="67" width="110" height="50" as="geometry" />
        </mxCell>
        <mxCell id="jmafxJ4Nut-tLMCwEQv0-9" value="ModelController" style="html=1;whiteSpace=wrap;" vertex="1" parent="1">
          <mxGeometry x="416" y="67" width="110" height="50" as="geometry" />
        </mxCell>
        <mxCell id="jmafxJ4Nut-tLMCwEQv0-10" value="UserModel" style="html=1;whiteSpace=wrap;" vertex="1" parent="1">
          <mxGeometry x="936" y="67" width="110" height="50" as="geometry" />
        </mxCell>
        <mxCell id="jmafxJ4Nut-tLMCwEQv0-11" value="APP" style="html=1;whiteSpace=wrap;" vertex="1" parent="1">
          <mxGeometry x="136" y="727" width="110" height="50" as="geometry" />
        </mxCell>
        <mxCell id="jmafxJ4Nut-tLMCwEQv0-12" value="Middleware JWT validates " style="html=1;whiteSpace=wrap;" vertex="1" parent="1">
          <mxGeometry x="276" y="727" width="110" height="50" as="geometry" />
        </mxCell>
        <mxCell id="jmafxJ4Nut-tLMCwEQv0-13" value="ModelService" style="html=1;whiteSpace=wrap;" vertex="1" parent="1">
          <mxGeometry x="546" y="727" width="110" height="50" as="geometry" />
        </mxCell>
        <mxCell id="jmafxJ4Nut-tLMCwEQv0-14" value="UserRepository  " style="html=1;whiteSpace=wrap;" vertex="1" parent="1">
          <mxGeometry x="676" y="727" width="110" height="50" as="geometry" />
        </mxCell>
        <mxCell id="jmafxJ4Nut-tLMCwEQv0-15" value="UserDao" style="html=1;whiteSpace=wrap;" vertex="1" parent="1">
          <mxGeometry x="806" y="727" width="110" height="50" as="geometry" />
        </mxCell>
        <mxCell id="jmafxJ4Nut-tLMCwEQv0-16" value="ModelController" style="html=1;whiteSpace=wrap;" vertex="1" parent="1">
          <mxGeometry x="416" y="727" width="110" height="50" as="geometry" />
        </mxCell>
        <mxCell id="jmafxJ4Nut-tLMCwEQv0-17" value="UserModel" style="html=1;whiteSpace=wrap;" vertex="1" parent="1">
          <mxGeometry x="936" y="727" width="110" height="50" as="geometry" />
        </mxCell>
        <mxCell id="jmafxJ4Nut-tLMCwEQv0-18" value="" style="endArrow=none;html=1;rounded=0;entryX=0.5;entryY=1;entryDx=0;entryDy=0;exitX=0.5;exitY=0;exitDx=0;exitDy=0;" edge="1" parent="1" source="jmafxJ4Nut-tLMCwEQv0-11" target="jmafxJ4Nut-tLMCwEQv0-4">
          <mxGeometry width="50" height="50" relative="1" as="geometry">
            <mxPoint x="536" y="477" as="sourcePoint" />
            <mxPoint x="586" y="427" as="targetPoint" />
          </mxGeometry>
        </mxCell>
        <mxCell id="jmafxJ4Nut-tLMCwEQv0-19" value="" style="endArrow=none;html=1;rounded=0;entryX=0.5;entryY=1;entryDx=0;entryDy=0;exitX=0.5;exitY=0;exitDx=0;exitDy=0;" edge="1" parent="1" source="jmafxJ4Nut-tLMCwEQv0-12" target="jmafxJ4Nut-tLMCwEQv0-5">
          <mxGeometry width="50" height="50" relative="1" as="geometry">
            <mxPoint x="426" y="1007" as="sourcePoint" />
            <mxPoint x="426" y="397" as="targetPoint" />
          </mxGeometry>
        </mxCell>
        <mxCell id="jmafxJ4Nut-tLMCwEQv0-20" value="" style="endArrow=none;html=1;rounded=0;entryX=0.5;entryY=1;entryDx=0;entryDy=0;exitX=0.5;exitY=0;exitDx=0;exitDy=0;" edge="1" parent="1" source="jmafxJ4Nut-tLMCwEQv0-16" target="jmafxJ4Nut-tLMCwEQv0-9">
          <mxGeometry width="50" height="50" relative="1" as="geometry">
            <mxPoint x="506" y="887" as="sourcePoint" />
            <mxPoint x="506" y="277" as="targetPoint" />
          </mxGeometry>
        </mxCell>
        <mxCell id="jmafxJ4Nut-tLMCwEQv0-21" value="" style="endArrow=none;html=1;rounded=0;entryX=0.5;entryY=1;entryDx=0;entryDy=0;exitX=0.5;exitY=0;exitDx=0;exitDy=0;" edge="1" parent="1">
          <mxGeometry width="50" height="50" relative="1" as="geometry">
            <mxPoint x="606" y="727" as="sourcePoint" />
            <mxPoint x="606" y="117" as="targetPoint" />
          </mxGeometry>
        </mxCell>
        <mxCell id="jmafxJ4Nut-tLMCwEQv0-22" value="" style="endArrow=none;html=1;rounded=0;entryX=0.5;entryY=1;entryDx=0;entryDy=0;exitX=0.5;exitY=0;exitDx=0;exitDy=0;" edge="1" parent="1">
          <mxGeometry width="50" height="50" relative="1" as="geometry">
            <mxPoint x="726" y="727" as="sourcePoint" />
            <mxPoint x="726" y="117" as="targetPoint" />
          </mxGeometry>
        </mxCell>
        <mxCell id="jmafxJ4Nut-tLMCwEQv0-23" value="" style="endArrow=none;html=1;rounded=0;entryX=0.5;entryY=1;entryDx=0;entryDy=0;exitX=0.5;exitY=0;exitDx=0;exitDy=0;" edge="1" parent="1">
          <mxGeometry width="50" height="50" relative="1" as="geometry">
            <mxPoint x="856" y="727" as="sourcePoint" />
            <mxPoint x="856" y="117" as="targetPoint" />
          </mxGeometry>
        </mxCell>
        <mxCell id="jmafxJ4Nut-tLMCwEQv0-24" value="" style="endArrow=none;html=1;rounded=0;entryX=0.5;entryY=1;entryDx=0;entryDy=0;exitX=0.5;exitY=0;exitDx=0;exitDy=0;" edge="1" parent="1">
          <mxGeometry width="50" height="50" relative="1" as="geometry">
            <mxPoint x="986" y="727" as="sourcePoint" />
            <mxPoint x="986" y="117" as="targetPoint" />
          </mxGeometry>
        </mxCell>
      </root>
    </mxGraphModel>
  </diagram>
</mxfile>
